<?xml version="1.0" standalone="no"?>
<!DOCTYPE svg PUBLIC "-//W3C//DTD SVG 20010904//EN"
 "http://www.w3.org/TR/2001/REC-SVG-20010904/DTD/svg10.dtd">
<svg version="1.0" xmlns="http://www.w3.org/2000/svg"
 width="700.000000pt" height="700.000000pt" viewBox="0 0 700.000000 700.000000"
 preserveAspectRatio="xMidYMid meet">
<metadata>
Created by potrace 1.11, written by Peter Selinger 2001-2013
</metadata>
<g transform="translate(0.000000,700.000000) scale(0.100000,-0.100000)"
fill="#000000" stroke="none">
<path d="M3234 6259 c-28 -3 -79 -9 -113 -13 -56 -6 -115 -16 -181 -31 -14 -3
-45 -10 -70 -15 -85 -17 -305 -87 -420 -134 -869 -357 -1502 -1132 -1674
-2052 -34 -183 -43 -289 -44 -509 0 -269 20 -443 79 -680 57 -229 169 -508
274 -686 21 -35 43 -73 49 -84 20 -37 119 -179 173 -250 110 -143 286 -325
437 -449 80 -66 288 -214 316 -224 8 -3 17 -8 20 -11 25 -29 326 -172 470
-224 113 -41 248 -82 301 -92 12 -2 28 -6 37 -9 9 -3 33 -8 52 -11 19 -3 42
-8 50 -10 8 -2 33 -7 55 -10 23 -3 50 -7 61 -9 139 -27 728 -28 773 -2 3 2 30
7 60 10 30 4 64 9 75 11 12 3 32 7 46 9 76 13 272 70 385 111 475 173 898 475
1218 872 156 194 328 490 411 708 21 55 42 109 47 120 9 23 32 96 35 110 1 6
9 35 18 65 20 69 53 221 61 280 3 25 8 52 10 60 27 103 27 643 -1 785 -2 11
-7 40 -10 65 -7 55 -58 276 -80 345 -66 211 -177 456 -287 637 -61 100 -182
271 -232 328 -13 14 -42 47 -66 74 -118 134 -251 256 -404 371 -402 302 -848
480 -1360 540 -114 14 -482 16 -571 4z"/>
</g>
</svg>
